# xmcd CD database file
#
# Track frame offsets:
#	150
#	14931
#	39541
#	63217
#	83818
#	106865
#	124055
#	138828
#	150588
#	169241
#	188316
#	202287
#
# Disc length: 3005 seconds
#
# Revision: 0
# Processed by: cddbd v1.5PL3 Copyright (c) Steve Scherf et al.
# Submitted via: CDex 1.50
#
DISCID=9d0bbb0c
DTITLE=Alain Jean-Marie - That's What...
DYEAR=2004
DGENRE=Jazz
TTITLE0=Summer Serenade
TTITLE1=Passion Flower
TTITLE2=Contemplation
TTITLE3=That's whatdreams are made of
TTITLE4=Memories of you
TTITLE5="D" Waltz
TTITLE6=The Duke
TTITLE7=Raincheck
TTITLE8=Italian Sorrow
TTITLE9=Mister Syms
TTITLE10=After the rain
TTITLE11=Peace
EXTD=YEAR: 2004
EXTT0=
EXTT1=
EXTT2=
EXTT3=
EXTT4=
EXTT5=
EXTT6=
EXTT7=
EXTT8=
EXTT9=
EXTT10=
EXTT11=
PLAYORDER=
